<?xml version="1.0" standalone="no"?><!DOCTYPE svg PUBLIC "-//W3C//DTD SVG 1.1//EN" "http://www.w3.org/Graphics/SVG/1.1/DTD/svg11.dtd"><svg t="1554950721999" class="icon" style="" viewBox="0 0 1024 1024" version="1.1" xmlns="http://www.w3.org/2000/svg" p-id="4902" xmlns:xlink="http://www.w3.org/1999/xlink" width="128" height="128"><defs><style type="text/css"></style></defs><path d="M913.408 384H732.16c-23.04 0-41.984-18.944-41.984-41.984 0-23.04 18.944-41.984 41.984-41.984h72.704c-65.536-92.672-173.568-153.088-295.936-153.088-200.192 0-362.496 162.304-362.496 362.496 0 200.192 162.304 362.496 362.496 362.496 200.192 0 362.496-162.304 362.496-362.496 0-23.04 18.944-41.984 41.984-41.984 23.04 0 41.984 18.944 41.984 41.984 0 246.272-199.68 445.952-445.952 445.952-246.272 0-445.952-199.68-445.952-445.952 0-246.272 199.68-445.952 445.952-445.952 149.504 0 281.6 73.728 362.496 186.368V175.104c0-23.04 18.944-41.984 41.984-41.984 23.04 0 41.984 18.944 41.984 41.984v167.424c-1.024 23.04-19.456 41.472-42.496 41.472z" p-id="4903"></path></svg>